<svg width="50" height="23" viewBox="0 0 50 23" fill="none" xmlns="http://www.w3.org/2000/svg">
<path d="M14.1948 6.62984C14.5696 6.62984 14.8198 6.87984 14.9982 7.32601C15.2123 6.87984 15.5159 6.62984 15.9446 6.62984H18.9441C19.0521 6.62952 19.1591 6.65055 19.2589 6.69171C19.3587 6.73288 19.4493 6.79337 19.5257 6.8697C19.602 6.94604 19.6625 7.03671 19.7036 7.13651C19.7448 7.2363 19.7658 7.34325 19.7655 7.45121V9.02943C19.7655 9.56492 19.498 9.85081 18.9441 9.85081C18.4087 9.85081 18.1228 9.56492 18.1228 9.02943V8.27217H15.998C15.9241 8.26383 15.8492 8.27257 15.7792 8.29771C15.7092 8.32285 15.6459 8.36373 15.5941 8.41719C15.5424 8.47066 15.5036 8.53528 15.4808 8.60609C15.458 8.6769 15.4517 8.752 15.4625 8.82561V14.3071H17.48C18.0159 14.3071 18.3014 14.575 18.3014 15.1284C18.3014 15.6819 18.0159 15.9498 17.48 15.9498H12.1595C11.6234 15.9498 11.3558 15.6821 11.3558 15.1284C11.3558 14.5748 11.6234 14.3071 12.1595 14.3071H13.82V8.27217H12.3556C11.8202 8.27217 11.5522 8.00424 11.5522 7.45081C11.5522 6.91492 11.8202 6.62943 12.3556 6.62943L14.1948 6.62984Z" fill="#7C7469"/>
<path d="M36.7073 6.62984C37.2427 6.62984 37.5286 6.91532 37.5286 7.45121V14.3075H39.5649C40.1185 14.3075 40.3863 14.5754 40.3863 15.1288C40.3863 15.6823 40.1185 15.9502 39.5649 15.9502H33.7974C33.2619 15.9502 32.976 15.6825 32.976 15.1288C32.976 14.5752 33.2619 14.3075 33.7974 14.3075H35.8865V8.27217H34.1661C33.6129 8.27217 33.345 8.00423 33.345 7.45081C33.345 6.91492 33.6129 6.62943 34.1661 6.62943L36.7073 6.62984ZM37.5581 3.07843C37.5597 3.31273 37.4915 3.54222 37.3623 3.73771C37.2332 3.9332 37.0488 4.08585 36.8326 4.17625C36.6164 4.26666 36.3783 4.29073 36.1484 4.24541C35.9185 4.20008 35.7073 4.08742 35.5416 3.92173C35.3759 3.75605 35.2632 3.54483 35.2179 3.31494C35.1726 3.08505 35.1967 2.84688 35.2871 2.63071C35.3775 2.41453 35.5301 2.23013 35.7256 2.10095C35.9211 1.97177 36.1506 1.90365 36.3849 1.90524C36.6947 1.90946 36.9907 2.03443 37.2098 2.25353C37.4289 2.47264 37.5538 2.76859 37.5581 3.07843Z" fill="#7C7469"/>
<path d="M49.9956 7.45121C49.9968 7.56067 49.9785 7.66948 49.9417 7.77258L46.9425 15.4496C46.8885 15.603 46.7862 15.7346 46.6509 15.8248C46.5156 15.915 46.3547 15.9588 46.1923 15.9496H44.9962C44.8308 15.9639 44.6653 15.9225 44.5262 15.8318C44.387 15.7412 44.2822 15.6067 44.2284 15.4496L41.1931 7.77198C41.1421 7.67275 41.1175 7.56209 41.1216 7.45061C41.1218 7.34128 41.1438 7.23309 41.1863 7.13236C41.2288 7.03163 41.291 6.94037 41.3691 6.86391C41.4473 6.78745 41.5399 6.72733 41.6415 6.68703C41.7431 6.64674 41.8518 6.62709 41.9611 6.62923C42.1272 6.62513 42.2902 6.67514 42.4254 6.77173C42.5606 6.86831 42.6607 7.00625 42.7107 7.16472L45.6034 14.4498L48.4058 7.16472C48.4558 7.00618 48.556 6.8682 48.6913 6.7716C48.8266 6.67501 48.9897 6.62504 49.1559 6.62923C49.2652 6.62706 49.3739 6.64671 49.4756 6.68703C49.5773 6.72735 49.67 6.78753 49.7482 6.86405C49.8263 6.94058 49.8885 7.03192 49.931 7.13273C49.9734 7.23354 49.9954 7.34181 49.9956 7.45121Z" fill="#7C7469"/>
<path d="M26.0048 11.2111L19.4038 19.0442C19.1446 19.3208 18.9837 19.8056 19.1286 20.153C19.2008 20.3284 19.3239 20.4781 19.482 20.5829C19.6402 20.6876 19.8261 20.7425 20.0157 20.7405C20.1384 20.7374 20.259 20.7076 20.369 20.6532C20.479 20.5988 20.5759 20.5211 20.6528 20.4254L28.7558 11.8137C28.9117 11.6497 28.9994 11.4326 29.0009 11.2063C29.0025 10.9801 28.9179 10.7617 28.7643 10.5956L26.0048 11.2111Z" fill="#AA142D"/>
<path d="M26.0048 11.2111L32.2925 3.49577C32.5934 3.09476 32.7361 2.88489 32.5934 2.54356C32.5182 2.36291 32.3936 2.2072 32.2337 2.09442C32.0738 1.98165 31.8853 1.91642 31.6899 1.90626C31.5789 1.89995 31.4678 1.91653 31.3635 1.95496C31.2592 1.99339 31.1639 2.05284 31.0835 2.12964L23.2956 10.5504C23.1285 10.7291 23.0358 10.9647 23.0364 11.2093C23.037 11.4539 23.1307 11.689 23.2986 11.8669L32.9329 22.1633C33.0139 22.2478 33.1126 22.3132 33.222 22.3547C33.3314 22.3963 33.4487 22.413 33.5653 22.4036C33.7419 22.4006 33.9135 22.3449 34.0581 22.2437C34.2028 22.1425 34.3139 22.0003 34.3772 21.8355C34.5222 21.4873 34.3619 21.1423 34.095 20.7811L26.0055 11.2117" fill="#7C7469"/>
<path d="M28.7637 10.5964L19.3556 0.429441C19.3556 0.429441 19.0103 0.010088 18.6452 0.00121698C18.4599 -0.00299718 18.2777 0.0482725 18.1218 0.148437C17.966 0.248601 17.8437 0.393081 17.7706 0.563313C17.6284 0.904442 17.7302 1.14396 18.0425 1.59154L26.1258 11.354" fill="#AA142D"/>
<path d="M6.74294 6.62984C7.75464 6.62984 8.39738 7.29757 8.39738 8.32338V15.9506H1.23852C1.10361 15.9599 0.968238 15.9409 0.841098 15.8949C0.713957 15.8488 0.597848 15.7767 0.500217 15.6831C0.402587 15.5896 0.325594 15.4766 0.274172 15.3515C0.22275 15.2265 0.198038 15.092 0.201619 14.9569V12.33C0.202192 11.9329 0.344755 11.549 0.603565 11.2478C0.862375 10.9465 1.22037 10.7477 1.61291 10.6873L6.75545 9.96713V8.27359H1.0365C0.92706 8.27706 0.818053 8.25829 0.71608 8.21842C0.614107 8.17855 0.521288 8.1184 0.443237 8.04161C0.365186 7.96482 0.303527 7.87299 0.261996 7.77168C0.220465 7.67037 0.199927 7.56169 0.201619 7.45222C0.201619 6.87359 0.633672 6.63084 1.07964 6.63084L6.74294 6.62984ZM6.75484 14.3075V11.6274L1.84476 12.3129V14.3089L6.75484 14.3075Z" fill="#7C7469"/>
</svg>
