<svg width="162" height="22" viewBox="0 0 162 22" fill="none" xmlns="http://www.w3.org/2000/svg">
<path d="M0.648 21V17.787L6.588 10.902L0.891 4.746V1.722H14.742V5.07H8.397C8.037 5.07 7.632 5.061 7.182 5.043C6.75 5.025 6.282 4.989 5.778 4.935L10.611 10.281V11.307L4.968 17.787C5.598 17.733 6.174 17.697 6.696 17.679C7.236 17.643 7.812 17.625 8.424 17.625H14.985V21H0.648ZM48.2846 21V18.786L54.5486 1.641H59.5436L65.8616 18.867V21H48.2846ZM52.9826 17.571H61.1366L58.2476 8.499C58.1576 8.193 58.0316 7.806 57.8696 7.338C57.7256 6.87 57.5726 6.393 57.4106 5.907C57.2666 5.421 57.1496 4.998 57.0596 4.638C56.9696 4.998 56.8436 5.448 56.6816 5.988C56.5196 6.51 56.3666 7.014 56.2226 7.5C56.0786 7.968 55.9706 8.301 55.8986 8.499L52.9826 17.571Z" fill="#AC512D"/>
<path d="M24.3027 21.324C23.2047 21.324 22.2147 21.162 21.3327 20.838C20.4687 20.496 19.7307 20.01 19.1187 19.38C18.5247 18.75 18.0657 17.985 17.7417 17.085C17.4177 16.185 17.2557 15.168 17.2557 14.034C17.2557 12.9 17.4177 11.883 17.7417 10.983C18.0657 10.083 18.5247 9.318 19.1187 8.688C19.7307 8.058 20.4687 7.581 21.3327 7.257C22.2147 6.915 23.1957 6.744 24.2757 6.744C25.8057 6.744 27.0297 7.059 27.9477 7.689C28.8837 8.301 29.5947 9.12 30.0807 10.146L27.0027 11.82C26.7507 11.28 26.4177 10.83 26.0037 10.47C25.6077 10.11 25.0317 9.93 24.2757 9.93C23.3577 9.93 22.6467 10.2 22.1427 10.74C21.6567 11.262 21.4137 11.982 21.4137 12.9V15.168C21.4137 16.086 21.6567 16.815 22.1427 17.355C22.6467 17.877 23.3757 18.138 24.3297 18.138C25.1037 18.138 25.7067 17.958 26.1387 17.598C26.5887 17.238 26.9667 16.77 27.2727 16.194L30.2967 17.922C29.7927 18.948 29.0547 19.776 28.0827 20.406C27.1287 21.018 25.8687 21.324 24.3027 21.324ZM40.7892 5.286C39.8892 5.286 39.2592 5.106 38.8992 4.746C38.5572 4.368 38.3862 3.918 38.3862 3.396V2.613C38.3862 2.073 38.5572 1.623 38.8992 1.263C39.2592 0.902999 39.8892 0.722999 40.7892 0.722999C41.6892 0.722999 42.3102 0.902999 42.6522 1.263C43.0122 1.623 43.1922 2.073 43.1922 2.613V3.396C43.1922 3.918 43.0122 4.368 42.6522 4.746C42.3102 5.106 41.6892 5.286 40.7892 5.286ZM34.3632 17.895H38.7912V10.173H34.3632V7.068H42.7872V17.895H46.8912V21H34.3632V17.895ZM75.0929 5.286C74.1929 5.286 73.5629 5.106 73.2029 4.746C72.8609 4.368 72.6899 3.918 72.6899 3.396V2.613C72.6899 2.073 72.8609 1.623 73.2029 1.263C73.5629 0.902999 74.1929 0.722999 75.0929 0.722999C75.9929 0.722999 76.6139 0.902999 76.9559 1.263C77.3159 1.623 77.4959 2.073 77.4959 2.613V3.396C77.4959 3.918 77.3159 4.368 76.9559 4.746C76.6139 5.106 75.9929 5.286 75.0929 5.286ZM68.6669 17.895H73.0949V10.173H68.6669V7.068H77.0909V17.895H81.1949V21H68.6669V17.895ZM90.2564 21.324C88.7084 21.324 87.3584 21.09 86.2064 20.622C85.0724 20.154 84.2174 19.515 83.6414 18.705L85.8824 16.626C86.4224 17.22 87.0524 17.688 87.7724 18.03C88.5104 18.354 89.3474 18.516 90.2834 18.516C91.0754 18.516 91.6964 18.399 92.1464 18.165C92.5964 17.913 92.8214 17.535 92.8214 17.031C92.8214 16.635 92.6684 16.365 92.3624 16.221C92.0564 16.059 91.6334 15.933 91.0934 15.843L88.8524 15.492C88.2224 15.402 87.6374 15.267 87.0974 15.087C86.5574 14.889 86.0894 14.628 85.6934 14.304C85.2974 13.98 84.9824 13.584 84.7484 13.116C84.5144 12.648 84.3974 12.081 84.3974 11.415C84.3974 9.957 84.9554 8.814 86.0714 7.986C87.1874 7.158 88.7534 6.744 90.7694 6.744C92.1374 6.744 93.2984 6.933 94.2524 7.311C95.2244 7.671 95.9984 8.193 96.5744 8.877L94.5764 11.145C94.1624 10.695 93.6314 10.317 92.9834 10.011C92.3354 9.705 91.5524 9.552 90.6344 9.552C89.0864 9.552 88.3124 10.02 88.3124 10.956C88.3124 11.37 88.4654 11.658 88.7714 11.82C89.0774 11.964 89.5004 12.081 90.0404 12.171L92.2544 12.522C92.8844 12.612 93.4694 12.756 94.0094 12.954C94.5494 13.134 95.0174 13.386 95.4134 13.71C95.8274 14.034 96.1514 14.43 96.3854 14.898C96.6194 15.366 96.7364 15.933 96.7364 16.599C96.7364 18.057 96.1694 19.209 95.0354 20.055C93.9194 20.901 92.3264 21.324 90.2564 21.324ZM107.175 21.324C106.077 21.324 105.087 21.162 104.205 20.838C103.341 20.496 102.603 20.01 101.991 19.38C101.397 18.75 100.938 17.985 100.614 17.085C100.29 16.185 100.128 15.168 100.128 14.034C100.128 12.9 100.29 11.883 100.614 10.983C100.938 10.083 101.397 9.318 101.991 8.688C102.603 8.058 103.341 7.581 104.205 7.257C105.087 6.915 106.068 6.744 107.148 6.744C108.678 6.744 109.902 7.059 110.82 7.689C111.756 8.301 112.467 9.12 112.953 10.146L109.875 11.82C109.623 11.28 109.29 10.83 108.876 10.47C108.48 10.11 107.904 9.93 107.148 9.93C106.23 9.93 105.519 10.2 105.015 10.74C104.529 11.262 104.286 11.982 104.286 12.9V15.168C104.286 16.086 104.529 16.815 105.015 17.355C105.519 17.877 106.248 18.138 107.202 18.138C107.976 18.138 108.579 17.958 109.011 17.598C109.461 17.238 109.839 16.77 110.145 16.194L113.169 17.922C112.665 18.948 111.927 19.776 110.955 20.406C110.001 21.018 108.741 21.324 107.175 21.324ZM125.146 18.462H124.984C124.678 19.254 124.192 19.929 123.526 20.487C122.878 21.045 121.996 21.324 120.88 21.324C120.214 21.324 119.602 21.216 119.044 21C118.486 20.766 118.009 20.424 117.613 19.974C117.217 19.524 116.902 18.975 116.668 18.327C116.452 17.679 116.344 16.932 116.344 16.086V7.068H120.34V15.546C120.34 17.346 121.123 18.246 122.689 18.246C122.995 18.246 123.292 18.21 123.58 18.138C123.886 18.048 124.147 17.922 124.363 17.76C124.597 17.58 124.786 17.364 124.93 17.112C125.074 16.86 125.146 16.563 125.146 16.221V7.068H129.142V21H125.146V18.462ZM138.825 21.324C137.277 21.324 135.927 21.09 134.775 20.622C133.641 20.154 132.786 19.515 132.21 18.705L134.451 16.626C134.991 17.22 135.621 17.688 136.341 18.03C137.079 18.354 137.916 18.516 138.852 18.516C139.644 18.516 140.265 18.399 140.715 18.165C141.165 17.913 141.39 17.535 141.39 17.031C141.39 16.635 141.237 16.365 140.931 16.221C140.625 16.059 140.202 15.933 139.662 15.843L137.421 15.492C136.791 15.402 136.206 15.267 135.666 15.087C135.126 14.889 134.658 14.628 134.262 14.304C133.866 13.98 133.551 13.584 133.317 13.116C133.083 12.648 132.966 12.081 132.966 11.415C132.966 9.957 133.524 8.814 134.64 7.986C135.756 7.158 137.322 6.744 139.338 6.744C140.706 6.744 141.867 6.933 142.821 7.311C143.793 7.671 144.567 8.193 145.143 8.877L143.145 11.145C142.731 10.695 142.2 10.317 141.552 10.011C140.904 9.705 140.121 9.552 139.203 9.552C137.655 9.552 136.881 10.02 136.881 10.956C136.881 11.37 137.034 11.658 137.34 11.82C137.646 11.964 138.069 12.081 138.609 12.171L140.823 12.522C141.453 12.612 142.038 12.756 142.578 12.954C143.118 13.134 143.586 13.386 143.982 13.71C144.396 14.034 144.72 14.43 144.954 14.898C145.188 15.366 145.305 15.933 145.305 16.599C145.305 18.057 144.738 19.209 143.604 20.055C142.488 20.901 140.895 21.324 138.825 21.324ZM155.014 21.324C153.466 21.324 152.116 21.09 150.964 20.622C149.83 20.154 148.975 19.515 148.399 18.705L150.64 16.626C151.18 17.22 151.81 17.688 152.53 18.03C153.268 18.354 154.105 18.516 155.041 18.516C155.833 18.516 156.454 18.399 156.904 18.165C157.354 17.913 157.579 17.535 157.579 17.031C157.579 16.635 157.426 16.365 157.12 16.221C156.814 16.059 156.391 15.933 155.851 15.843L153.61 15.492C152.98 15.402 152.395 15.267 151.855 15.087C151.315 14.889 150.847 14.628 150.451 14.304C150.055 13.98 149.74 13.584 149.506 13.116C149.272 12.648 149.155 12.081 149.155 11.415C149.155 9.957 149.713 8.814 150.829 7.986C151.945 7.158 153.511 6.744 155.527 6.744C156.895 6.744 158.056 6.933 159.01 7.311C159.982 7.671 160.756 8.193 161.332 8.877L159.334 11.145C158.92 10.695 158.389 10.317 157.741 10.011C157.093 9.705 156.31 9.552 155.392 9.552C153.844 9.552 153.07 10.02 153.07 10.956C153.07 11.37 153.223 11.658 153.529 11.82C153.835 11.964 154.258 12.081 154.798 12.171L157.012 12.522C157.642 12.612 158.227 12.756 158.767 12.954C159.307 13.134 159.775 13.386 160.171 13.71C160.585 14.034 160.909 14.43 161.143 14.898C161.377 15.366 161.494 15.933 161.494 16.599C161.494 18.057 160.927 19.209 159.793 20.055C158.677 20.901 157.084 21.324 155.014 21.324Z" fill="#2B3B7B"/>
</svg>
